<svg xmlns="http://www.w3.org/2000/svg" width="512" height="512" viewBox="0 0 512 512">
  <defs>
    <filter id="grain" x="-20%" y="-20%" width="140%" height="140%">
      <feTurbulence type="fractalNoise" baseFrequency="0.8" numOctaves="3" stitchTiles="stitch"/>
      <feColorMatrix type="matrix" values="1 0 0 0 0  0 1 0 0 0  0 0 1 0 0  0 0 0 0.3 0"/>
    </filter>
    <filter id="soft" x="-20%" y="-20%" width="140%" height="140%">
      <feGaussianBlur stdDeviation="1.15"/>
    </filter>
    <radialGradient id="pip" cx="45%" cy="40%" r="70%">
      <stop offset="0" stop-color="#ffffff" stop-opacity="0.82"/>
      <stop offset="0.55" stop-color="#f1f1f1" stop-opacity="0.35"/>
      <stop offset="1" stop-color="#0a0a0a" stop-opacity="0"/>
    </radialGradient>
  </defs>

  <rect width="512" height="512" rx="42" fill="#0b0b0b"/>

  <!-- discreet mural strokes -->
  <g opacity="0.22" filter="url(#soft)" fill="none" stroke-linecap="round" stroke-linejoin="round">
    <path d="M74 192 C160 118, 248 140, 318 112 C384 86, 434 92, 490 70" stroke="#f6f6f6" stroke-width="14"/>
    <path d="M88 350 C160 404, 242 386, 308 410 C374 438, 442 438, 496 458" stroke="#f6f6f6" stroke-width="10" opacity="0.7"/>
    <path d="M232 86 C250 140, 238 168, 250 214 C260 252, 288 270, 272 330" stroke="#ff0000" stroke-width="10" opacity="0.24"/>
  </g>

  <rect width="512" height="512" rx="42" filter="url(#grain)" opacity="0.86"/>

  <!-- pips -->
  <g>
    <circle cx="176" cy="176" r="24" fill="#0a0a0a" opacity="0.75" stroke="#ffffff" stroke-opacity="0.18" stroke-width="2"/>
    <circle cx="176" cy="176" r="24" fill="url(#pip)"/>
    <circle cx="336" cy="176" r="24" fill="#0a0a0a" opacity="0.75" stroke="#ffffff" stroke-opacity="0.18" stroke-width="2"/>
    <circle cx="336" cy="176" r="24" fill="url(#pip)"/>
    <circle cx="176" cy="336" r="24" fill="#0a0a0a" opacity="0.75" stroke="#ffffff" stroke-opacity="0.18" stroke-width="2"/>
    <circle cx="176" cy="336" r="24" fill="url(#pip)"/>
    <circle cx="336" cy="336" r="24" fill="#0a0a0a" opacity="0.75" stroke="#ffffff" stroke-opacity="0.18" stroke-width="2"/>
    <circle cx="336" cy="336" r="24" fill="url(#pip)"/>
  </g>
</svg>
