<svg xmlns="http://www.w3.org/2000/svg" width="512" height="512" viewBox="0 0 512 512">
  <defs>
    <filter id="grain" x="-20%" y="-20%" width="140%" height="140%">
      <feTurbulence type="fractalNoise" baseFrequency="0.8" numOctaves="3" stitchTiles="stitch"/>
      <feColorMatrix type="matrix" values="1 0 0 0 0  0 1 0 0 0  0 0 1 0 0  0 0 0 0.28 0"/>
    </filter>
    <filter id="soft" x="-20%" y="-20%" width="140%" height="140%">
      <feGaussianBlur stdDeviation="1.2"/>
    </filter>
    <radialGradient id="pip" cx="45%" cy="40%" r="70%">
      <stop offset="0" stop-color="#ffffff" stop-opacity="0.82"/>
      <stop offset="0.55" stop-color="#f1f1f1" stop-opacity="0.35"/>
      <stop offset="1" stop-color="#0a0a0a" stop-opacity="0"/>
    </radialGradient>
  </defs>

  <rect width="512" height="512" rx="42" fill="#0b0b0b"/>

  <!-- subtle wall haze + drip/spray (no neon) -->
  <g opacity="0.22" filter="url(#soft)">
    <path d="M60 160 C140 120, 230 170, 320 130 C390 105, 450 110, 488 86" fill="none" stroke="#f6f6f6" stroke-width="18" stroke-linecap="round"/>
    <path d="M84 388 C160 420, 244 360, 330 398 C404 430, 448 420, 500 440" fill="none" stroke="#f6f6f6" stroke-width="12" stroke-linecap="round" opacity="0.6"/>
    <path d="M420 86 C438 130, 426 158, 436 200 C444 234, 464 250, 452 304" fill="none" stroke="#ff0000" stroke-width="10" stroke-linecap="round" opacity="0.35"/>
  </g>

  <rect width="512" height="512" rx="42" filter="url(#grain)" opacity="0.85"/>

  <!-- pips -->
  <g>
    <circle cx="256" cy="256" r="26" fill="#0a0a0a" opacity="0.75" stroke="#ffffff" stroke-opacity="0.18" stroke-width="2"/>
    <circle cx="256" cy="256" r="26" fill="url(#pip)"/>
  </g>
</svg>
