<svg xmlns="http://www.w3.org/2000/svg" width="512" height="512" viewBox="0 0 512 512">
  <defs>
    <filter id="grain" x="-20%" y="-20%" width="140%" height="140%">
      <feTurbulence type="fractalNoise" baseFrequency="0.84" numOctaves="3" stitchTiles="stitch"/>
      <feColorMatrix type="matrix" values="1 0 0 0 0  0 1 0 0 0  0 0 1 0 0  0 0 0 0.28 0"/>
    </filter>
    <filter id="soft" x="-20%" y="-20%" width="140%" height="140%">
      <feGaussianBlur stdDeviation="1.2"/>
    </filter>
    <radialGradient id="pip" cx="45%" cy="40%" r="70%">
      <stop offset="0" stop-color="#ffffff" stop-opacity="0.82"/>
      <stop offset="0.55" stop-color="#f1f1f1" stop-opacity="0.35"/>
      <stop offset="1" stop-color="#0a0a0a" stop-opacity="0"/>
    </radialGradient>
  </defs>

  <rect width="512" height="512" rx="42" fill="#0b0b0b"/>

  <!-- energetic but muted strokes -->
  <g opacity="0.22" filter="url(#soft)" fill="none" stroke-linecap="round" stroke-linejoin="round">
    <path d="M84 170 C150 110, 230 140, 300 110 C372 80, 430 92, 492 70" stroke="#f6f6f6" stroke-width="14"/>
    <path d="M76 334 C150 390, 222 378, 292 404 C366 432, 438 438, 498 460" stroke="#f6f6f6" stroke-width="10" opacity="0.7"/>
    <path d="M420 86 C438 140, 426 168, 440 220 C452 260, 478 286, 458 350" stroke="#ff0000" stroke-width="10" opacity="0.23"/>
  </g>

  <rect width="512" height="512" rx="42" filter="url(#grain)" opacity="0.86"/>

  <!-- pips -->
  <g>
    <circle cx="176" cy="176" r="22" fill="#0a0a0a" opacity="0.75" stroke="#ffffff" stroke-opacity="0.18" stroke-width="2"/>
    <circle cx="176" cy="176" r="22" fill="url(#pip)"/>
    <circle cx="336" cy="176" r="22" fill="#0a0a0a" opacity="0.75" stroke="#ffffff" stroke-opacity="0.18" stroke-width="2"/>
    <circle cx="336" cy="176" r="22" fill="url(#pip)"/>

    <circle cx="176" cy="256" r="22" fill="#0a0a0a" opacity="0.75" stroke="#ffffff" stroke-opacity="0.18" stroke-width="2"/>
    <circle cx="176" cy="256" r="22" fill="url(#pip)"/>
    <circle cx="336" cy="256" r="22" fill="#0a0a0a" opacity="0.75" stroke="#ffffff" stroke-opacity="0.18" stroke-width="2"/>
    <circle cx="336" cy="256" r="22" fill="url(#pip)"/>

    <circle cx="176" cy="336" r="22" fill="#0a0a0a" opacity="0.75" stroke="#ffffff" stroke-opacity="0.18" stroke-width="2"/>
    <circle cx="176" cy="336" r="22" fill="url(#pip)"/>
    <circle cx="336" cy="336" r="22" fill="#0a0a0a" opacity="0.75" stroke="#ffffff" stroke-opacity="0.18" stroke-width="2"/>
    <circle cx="336" cy="336" r="22" fill="url(#pip)"/>
  </g>
</svg>
