<svg xmlns="http://www.w3.org/2000/svg" width="1600" height="1000" viewBox="0 0 1600 1000">
  <defs>
    <filter id="sprayNoise" x="-20%" y="-20%" width="140%" height="140%">
      <feTurbulence type="fractalNoise" baseFrequency="0.85" numOctaves="4" stitchTiles="stitch"/>
      <feColorMatrix type="matrix" values="1 0 0 0 0  0 1 0 0 0  0 0 1 0 0  0 0 0 0.22 0"/>
    </filter>
    <filter id="blur" x="-20%" y="-20%" width="140%" height="140%">
      <feGaussianBlur stdDeviation="1.4" />
    </filter>
    <linearGradient id="drip" x1="0" y1="0" x2="0" y2="1">
      <stop offset="0" stop-color="#ff0000" stop-opacity="0.55"/>
      <stop offset="1" stop-color="#ff0000" stop-opacity="0"/>
    </linearGradient>
  </defs>

  <rect width="1600" height="1000" fill="#0b0b0b"/>

  <!-- Big continuous tag strokes (mural vibe, discreet) -->
  <g fill="none" stroke-linecap="round" stroke-linejoin="round" opacity="0.9">
    <path d="M-80 200 C 160 20, 420 40, 620 210 S 1020 410, 1320 220 S 1760 30, 1760 30" stroke="#f6f6f6" stroke-width="30" opacity="0.12"/>
    <path d="M-120 460 C 140 260, 380 300, 600 470 S 980 660, 1260 500 S 1760 300, 1760 300" stroke="#f6f6f6" stroke-width="22" opacity="0.10"/>
    <path d="M-80 740 C 200 560, 420 600, 640 760 S 1040 960, 1320 800 S 1760 620, 1760 620" stroke="#f6f6f6" stroke-width="18" opacity="0.08"/>
  </g>

  <!-- Letter-ish tags (no fonts; just strokes) -->
  <g fill="none" stroke="#f6f6f6" stroke-linecap="round" stroke-linejoin="round" opacity="0.11">
    <path d="M220 310 q 40 -70 90 -10 q 25 35 60 10 q 28 -20 54 6" stroke-width="14"/>
    <path d="M520 260 q 30 -60 82 -40 q 40 16 18 54 q -18 30 -70 22 q 62 10 88 42" stroke-width="12"/>
    <path d="M1040 310 q 18 -54 64 -54 q 62 0 44 64 q -10 36 -62 38 q 70 8 90 46" stroke-width="12"/>
    <path d="M1260 520 q 60 -70 120 -10 q 42 42 0 86 q -42 44 -118 6" stroke-width="14"/>
  </g>

  <!-- Spray blobs (muted) -->
  <g opacity="0.28" filter="url(#blur)">
    <circle cx="280" cy="310" r="210" fill="#f6f6f6" opacity="0.10"/>
    <circle cx="640" cy="680" r="260" fill="#f6f6f6" opacity="0.08"/>
    <circle cx="1120" cy="370" r="240" fill="#f6f6f6" opacity="0.07"/>
    <circle cx="1360" cy="760" r="220" fill="#f6f6f6" opacity="0.06"/>
    <circle cx="820" cy="420" r="180" fill="#ff0000" opacity="0.05"/>
  </g>

  <!-- Drips -->
  <g opacity="0.18">
    <path d="M220 140 C 250 220, 210 270, 230 320 C 250 370, 280 360, 270 430" stroke="url(#drip)" stroke-width="9" stroke-linecap="round"/>
    <path d="M920 120 C 950 220, 920 260, 940 330 C 960 400, 980 410, 970 500" stroke="url(#drip)" stroke-width="9" stroke-linecap="round"/>
    <path d="M1280 160 C 1300 240, 1270 280, 1284 340 C 1300 420, 1320 420, 1310 510" stroke="url(#drip)" stroke-width="8" stroke-linecap="round"/>
    <path d="M620 118 C 642 210, 618 254, 632 310 C 648 374, 674 388, 660 470" stroke="url(#drip)" stroke-width="7" stroke-linecap="round" opacity="0.75"/>
  </g>

  <!-- Scribble micro-tags -->
  <g fill="none" stroke="#f6f6f6" stroke-width="2" opacity="0.10">
    <path d="M120 520 q 30 -40 60 0 t 60 0 t 60 0"/>
    <path d="M980 610 q 22 -30 44 0 t 44 0 t 44 0"/>
    <path d="M420 250 q 18 -26 36 0 t 36 0 t 36 0"/>
    <path d="M1220 280 q 16 -24 32 0 t 32 0 t 32 0"/>
  </g>

  <!-- Noise on top for grit -->
  <rect width="1600" height="1000" filter="url(#sprayNoise)" opacity="0.65"/>
</svg>
