<svg xmlns="http://www.w3.org/2000/svg" width="1600" height="1000" viewBox="0 0 1600 1000">
  <defs>
    <filter id="xerox" x="-20%" y="-20%" width="140%" height="140%" color-interpolation-filters="sRGB">
      <feTurbulence type="fractalNoise" baseFrequency="0.75" numOctaves="4" seed="21" result="n" />
      <feColorMatrix
        in="n"
        type="matrix"
        values="1 0 0 0 0  0 1 0 0 0  0 0 1 0 0  0 0 0 0.20 0"
        result="a"
      />
      <feComposite in="a" in2="SourceGraphic" operator="in" result="grain" />
      <feBlend in="SourceGraphic" in2="grain" mode="overlay" />
    </filter>

    <filter id="tear" x="-30%" y="-30%" width="160%" height="160%">
      <feTurbulence type="fractalNoise" baseFrequency="0.02" numOctaves="2" seed="8" result="t" />
      <feDisplacementMap in="SourceGraphic" in2="t" scale="22" xChannelSelector="R" yChannelSelector="G" />
    </filter>

    <pattern id="halftone" patternUnits="userSpaceOnUse" width="14" height="14">
      <circle cx="3" cy="3" r="1.2" fill="#f6f6f6" opacity="0.42" />
      <circle cx="10" cy="7" r="0.9" fill="#f6f6f6" opacity="0.28" />
      <circle cx="6" cy="12" r="0.8" fill="#f6f6f6" opacity="0.20" />
    </pattern>

    <pattern id="scan" patternUnits="userSpaceOnUse" width="8" height="8">
      <rect x="0" y="0" width="8" height="1" fill="#f6f6f6" opacity="0.10" />
      <rect x="0" y="4" width="8" height="1" fill="#f6f6f6" opacity="0.06" />
    </pattern>

    <linearGradient id="paper" x1="0" y1="0" x2="1" y2="1">
      <stop offset="0" stop-color="#f6f6f6" stop-opacity="0.10" />
      <stop offset="0.55" stop-color="#f6f6f6" stop-opacity="0.04" />
      <stop offset="1" stop-color="#f6f6f6" stop-opacity="0.08" />
    </linearGradient>
  </defs>

  <rect width="1600" height="1000" fill="none" />

  <!-- torn paper slabs -->
  <g opacity="0.85" filter="url(#tear)">
    <path d="M120 160 L640 120 L700 340 L210 380 Z" fill="url(#paper)" />
    <path d="M880 90 L1520 140 L1460 420 L820 360 Z" fill="url(#paper)" opacity="0.75" />
    <path d="M240 560 L1260 520 L1340 860 L300 900 Z" fill="url(#paper)" opacity="0.65" />
    <path d="M60 760 L520 710 L570 980 L80 1000 Z" fill="url(#paper)" opacity="0.55" />
  </g>

  <!-- halftone patches -->
  <g opacity="0.22">
    <rect x="92" y="120" width="520" height="280" fill="url(#halftone)" />
    <rect x="860" y="80" width="640" height="360" fill="url(#halftone)" opacity="0.85" />
    <rect x="260" y="520" width="980" height="380" fill="url(#halftone)" opacity="0.65" />
  </g>

  <!-- barcode / brutal stripes -->
  <g opacity="0.14">
    <rect x="70" y="446" width="560" height="86" fill="#0b0b0b" opacity="0.35" />
    <g stroke="#f6f6f6" stroke-width="3">
      <path d="M90 460 V520" />
      <path d="M112 460 V520" opacity="0.7" />
      <path d="M130 460 V520" opacity="0.9" />
      <path d="M154 460 V520" opacity="0.6" />
      <path d="M170 460 V520" opacity="0.9" />
      <path d="M198 460 V520" opacity="0.7" />
      <path d="M214 460 V520" opacity="0.9" />
      <path d="M242 460 V520" opacity="0.6" />
      <path d="M262 460 V520" opacity="0.85" />
      <path d="M290 460 V520" opacity="0.65" />
      <path d="M312 460 V520" opacity="0.9" />
      <path d="M334 460 V520" opacity="0.7" />
      <path d="M358 460 V520" opacity="0.85" />
      <path d="M382 460 V520" opacity="0.6" />
      <path d="M402 460 V520" opacity="0.9" />
      <path d="M430 460 V520" opacity="0.75" />
      <path d="M448 460 V520" opacity="0.9" />
      <path d="M472 460 V520" opacity="0.62" />
      <path d="M498 460 V520" opacity="0.86" />
      <path d="M520 460 V520" opacity="0.72" />
      <path d="M542 460 V520" opacity="0.9" />
      <path d="M566 460 V520" opacity="0.6" />
      <path d="M588 460 V520" opacity="0.88" />
    </g>
  </g>

  <!-- stamps / rings -->
  <g fill="none" stroke-linecap="round" stroke-linejoin="round" opacity="0.18" filter="url(#tear)">
    <circle cx="1180" cy="610" r="140" stroke="#f6f6f6" stroke-width="8" opacity="0.28" />
    <circle cx="1180" cy="610" r="110" stroke="#ff0000" stroke-width="3" opacity="0.35" />
    <circle cx="420" cy="720" r="92" stroke="#f6f6f6" stroke-width="6" opacity="0.22" />
    <circle cx="420" cy="720" r="70" stroke="#ff0000" stroke-width="2" opacity="0.28" />
  </g>

  <!-- red thread gestures -->
  <g fill="none" stroke="#ff0000" stroke-linecap="round" stroke-linejoin="round" opacity="0.18">
    <path d="M-80 260 C 120 120, 300 140, 470 260 S 720 420, 960 300 S 1280 90, 1760 180" stroke-width="10" />
    <path d="M-60 820 C 180 700, 360 740, 520 840 S 820 1030, 1120 860 S 1420 660, 1760 820" stroke-width="8" opacity="0.70" />
  </g>

  <!-- scanlines / xerox banding -->
  <g opacity="0.10">
    <rect x="0" y="0" width="1600" height="1000" fill="url(#scan)" />
  </g>

  <!-- grit on top -->
  <g opacity="0.95" filter="url(#xerox)">
    <rect x="0" y="0" width="1600" height="1000" fill="#0b0b0b" opacity="0" />
  </g>
</svg>
