<svg width="600" height="300" xmlns="http://www.w3.org/2000/svg">
  
  <path d="M 62.32 71.58 L 61.35 73.52 L 61.35 74.49 L 60.37 78.37 L 60.37 81.28 L 60.37 84.19 L 60.37 87.10 L 60.37 90.01 L 60.37 93.90 L 61.35 97.78 L 61.35 100.69 L 62.32 105.54 L 62.32 108.45 L 63.30 112.33 L 65.25 119.12 L 67.20 123.97 L 68.17 125.91 L 69.15 126.88 L 71.10 130.76 L 72.07 133.67 L 74.02 135.61 L 75.00 137.55 L 75.97 140.46 L 77.92 142.40 L 78.90 144.34 L 81.83 147.25 L 85.73 151.13 L 86.70 153.07 L 90.60 157.92 L 92.55 158.89 L 95.48 161.80 L 99.38 164.71 L 101.33 166.65 L 103.28 167.62 L 104.25 167.62 L 105.23 167.62" stroke="#000000" stroke-width="3" fill="none" stroke-linecap="round" stroke-linejoin="round"/>
<path d="M 90.60 70.61 L 91.58 71.58 L 92.55 71.58 L 93.53 72.55 L 95.48 75.46 L 97.43 76.43 L 98.40 77.40 L 99.38 78.37 L 101.33 82.25 L 103.28 85.16 L 103.28 87.10 L 103.28 88.07 L 104.25 90.01 L 104.25 92.92 L 104.25 93.90 L 104.25 94.87 L 104.25 96.81 L 104.25 97.78 L 104.25 98.75 L 103.28 99.72 L 102.30 100.69 L 101.33 102.63 L 100.35 103.60 L 98.40 105.54 L 96.45 106.51 L 95.48 108.45 L 92.55 109.42 L 91.58 110.39 L 86.70 113.30 L 84.75 114.27 L 80.85 117.18 L 77.92 119.12 L 75.00 120.09 L 72.07 122.03 L 69.15 123.00 L 66.22 123.97 L 63.30 124.94 L 60.37 125.91 L 58.42 125.91 L 57.45 126.88 L 55.50 126.88 L 55.50 126.88 L 55.50 126.88 L 56.47 126.88 L 58.42 126.88 L 59.40 126.88 L 62.32 126.88 L 62.32 126.88 L 65.25 125.91 L 66.22 125.91 L 67.20 125.91 L 69.15 124.94 L 70.12 124.94 L 71.10 124.94 L 73.05 123.97 L 75.00 123.97 L 75.97 123.00 L 77.92 123.00 L 79.87 123.00 L 81.83 122.03 L 84.75 122.03 L 87.68 121.06 L 90.60 120.09 L 94.50 119.12 L 98.40 118.15 L 102.30 118.15 L 106.21 117.18 L 109.13 116.21 L 113.03 116.21 L 114.98 116.21 L 119.86 115.24 L 123.76 115.24 L 126.68 115.24 L 129.61 115.24 L 132.54 115.24 L 136.44 114.27 L 139.36 114.27 L 141.31 114.27 L 142.29 114.27 L 144.24 114.27 L 145.21 114.27 L 145.21 114.27 L 146.19 115.24 L 144.24 115.24 L 143.26 115.24 L 142.29 115.24 L 141.31 115.24 L 140.34 115.24 L 138.39 115.24 L 136.44 116.21 L 134.49 116.21 L 133.51 117.18 L 131.56 118.15 L 130.58 119.12 L 129.61 120.09 L 127.66 122.03 L 126.68 125.91 L 124.73 129.79 L 122.78 135.61 L 122.78 142.40 L 121.81 146.28 L 121.81 151.13 L 121.81 157.92 L 122.78 165.68 L 127.66 183.14 L 131.56 189.93 L 133.51 194.78 L 136.44 198.66 L 137.41 199.63 L 138.39 201.57 L 139.36 202.54 L 141.31 205.45 L 142.29 206.42 L 142.29 206.42 L 143.26 207.39" stroke="#000000" stroke-width="3" fill="none" stroke-linecap="round" stroke-linejoin="round"/>
<path d="M 135.46 141.43 L 136.44 140.46 L 138.39 139.49 L 139.36 138.52 L 140.34 137.55 L 141.31 136.58 L 142.29 136.58 L 142.29 134.64 L 144.24 133.67 L 144.24 132.70 L 145.21 131.73 L 146.19 130.76 L 146.19 129.79 L 146.19 128.82 L 147.16 126.88 L 147.16 126.88 L 147.16 125.91 L 148.14 125.91 L 148.14 124.94 L 148.14 123.97 L 149.11 123.00 L 149.11 123.00 L 149.11 122.03 L 149.11 121.06 L 149.11 121.06 L 149.11 120.09 L 149.11 119.12 L 149.11 119.12 L 149.11 118.15 L 149.11 118.15 L 149.11 117.18 L 149.11 117.18 L 149.11 116.21 L 149.11 116.21 L 149.11 115.24 L 149.11 115.24 L 149.11 114.27 L 149.11 114.27 L 149.11 113.30 L 149.11 114.27 L 149.11 114.27 L 150.09 115.24 L 150.09 115.24 L 150.09 116.21 L 150.09 117.18 L 150.09 118.15 L 150.09 118.15 L 151.06 119.12 L 151.06 120.09 L 151.06 122.03 L 152.04 123.97 L 152.04 126.88 L 152.04 128.82 L 153.01 133.67 L 154.96 136.58 L 155.94 139.49 L 156.92 141.43 L 158.87 144.34 L 160.82 148.22 L 163.74 150.16 L 164.72 152.10 L 166.67 155.01 L 167.64 156.95 L 168.62 158.89 L 171.54 161.80 L 173.49 166.65 L 175.44 169.56 L 177.39 172.47 L 179.34 175.38 L 181.29 177.32 L 183.25 180.23 L 185.20 182.17 L 188.12 187.02 L 190.07 188.96 L 191.05 189.93 L 193.97 193.81 L 193.97 193.81 L 195.92 197.69 L 196.90 198.66 L 196.90 199.63 L 197.87 200.60 L 198.85 202.54 L 198.85 203.51 L 199.82 204.48 L 200.80 204.48 L 200.80 206.42 L 201.77 206.42 L 201.77 206.42 L 200.80 206.42 L 200.80 206.42 L 199.82 206.42 L 198.85 206.42 L 197.87 205.45 L 195.92 204.48 L 193.97 203.51 L 193.00 202.54 L 192.02 201.57 L 190.07 201.57 L 189.10 200.60 L 187.15 200.60 L 185.20 199.63 L 183.25 199.63 L 182.27 198.66 L 180.32 198.66 L 179.34 198.66 L 177.39 197.69 L 175.44 197.69 L 174.47 197.69 L 172.52 196.72 L 171.54 196.72 L 169.59 195.75 L 167.64 195.75 L 165.69 194.78 L 163.74 193.81 L 160.82 193.81 L 159.84 193.81 L 158.87 192.84 L 156.92 192.84 L 155.94 192.84 L 154.96 191.87 L 153.99 191.87 L 153.01 191.87 L 152.04 190.90 L 151.06 190.90 L 150.09 189.93 L 149.11 188.96 L 149.11 188.96 L 147.16 187.99 L 147.16 187.02 L 146.19 187.02 L 145.21 186.05 L 145.21 186.05 L 144.24 184.11 L 144.24 184.11 L 143.26 183.14 L 143.26 182.17 L 143.26 181.20 L 143.26 180.23 L 143.26 179.26 L 143.26 178.29 L 143.26 177.32 L 143.26 176.35 L 143.26 175.38 L 143.26 174.41 L 143.26 174.41 L 143.26 172.47 L 143.26 172.47 L 143.26 171.50 L 143.26 170.53 L 144.24 169.56 L 144.24 168.59 L 145.21 167.62 L 146.19 166.65 L 147.16 165.68 L 148.14 164.71 L 149.11 163.74 L 149.11 162.77 L 151.06 161.80 L 151.06 160.83 L 153.01 159.86 L 153.01 158.89 L 154.96 157.92 L 154.96 156.95 L 156.92 155.98 L 157.89 155.01 L 157.89 154.04 L 159.84 153.07 L 159.84 152.10 L 161.79 151.13 L 161.79 150.16 L 163.74 149.19 L 164.72 148.22 L 165.69 146.28 L 166.67 146.28 L 167.64 144.34 L 168.62 143.37 L 169.59 142.40 L 169.59 141.43 L 170.57 140.46 L 170.57 139.49 L 170.57 137.55 L 171.54 136.58 L 171.54 134.64 L 171.54 131.73 L 171.54 128.82 L 170.57 124.94 L 170.57 123.97 L 170.57 122.03 L 169.59 121.06 L 169.59 120.09" stroke="#000000" stroke-width="3" fill="none" stroke-linecap="round" stroke-linejoin="round"/>
<path d="M 232.00 202.54 L 231.03 201.57 L 230.05 201.57 L 230.05 200.60 L 229.08 200.60 L 229.08 200.60 L 227.13 199.63 L 226.15 199.63 L 224.20 198.66 L 222.25 197.69 L 219.33 195.75 L 217.38 195.75 L 215.43 194.78 L 214.45 193.81 L 211.53 193.81 L 209.58 193.81 L 207.62 192.84 L 205.67 191.87 L 203.72 191.87 L 201.77 190.90 L 200.80 190.90 L 198.85 189.93 L 197.87 189.93 L 197.87 188.96 L 197.87 188.96 L 197.87 187.99 L 198.85 187.02 L 199.82 186.05 L 201.77 184.11 L 203.72 182.17 L 204.70 179.26 L 205.67 175.38 L 206.65 171.50 L 206.65 167.62 L 206.65 165.68 L 206.65 161.80 L 206.65 158.89 L 205.67 155.01 L 203.72 151.13 L 203.72 148.22 L 201.77 144.34 L 199.82 140.46 L 198.85 137.55 L 196.90 134.64 L 196.90 132.70 L 194.95 130.76 L 193.97 126.88 L 193.00 123.97 L 192.02 121.06 L 191.05 120.09 L 190.07 117.18 L 189.10 115.24 L 188.12 114.27 L 188.12 112.33 L 188.12 111.36 L 188.12 111.36 L 188.12 112.33 L 189.10 113.30 L 189.10 113.30 L 189.10 114.27 L 190.07 116.21 L 191.05 118.15 L 192.02 121.06 L 193.00 123.00 L 193.97 126.88 L 195.92 129.79 L 197.87 135.61 L 199.82 138.52 L 201.77 142.40 L 203.72 144.34 L 205.67 146.28 L 206.65 148.22 L 208.60 152.10 L 209.58 154.04 L 210.55 155.98 L 211.53 156.95 L 213.48 158.89 L 215.43 160.83 L 215.43 161.80 L 216.40 162.77 L 217.38 164.71 L 218.35 165.68 L 218.35 166.65 L 219.33 166.65 L 221.28 168.59 L 221.28 169.56 L 223.23 171.50 L 223.23 172.47 L 224.20 173.44 L 225.18 176.35 L 227.13 178.29 L 228.10 179.26 L 228.10 180.23 L 229.08 182.17 L 230.05 183.14 L 231.03 184.11 L 232.00 185.08 L 232.00 186.05 L 232.98 187.02 L 232.98 187.02 L 232.98 187.99 L 233.96 187.99 L 233.96 188.96 L 234.93 188.96 L 233.96 188.96 L 233.96 188.96 L 232.98 187.02 L 232.98 187.02 L 232.00 185.08 L 231.03 184.11 L 230.05 182.17 L 229.08 180.23 L 228.10 179.26 L 227.13 176.35 L 226.15 174.41 L 226.15 173.44 L 225.18 170.53 L 224.20 169.56 L 224.20 166.65 L 223.23 163.74 L 222.25 159.86 L 222.25 156.95 L 222.25 154.04 L 221.28 151.13 L 221.28 149.19 L 220.30 147.25 L 219.33 143.37 L 218.35 142.40 L 218.35 139.49 L 217.38 136.58 L 217.38 133.67 L 216.40 130.76 L 215.43 127.85 L 215.43 125.91 L 214.45 123.00 L 214.45 121.06 L 214.45 118.15 L 213.48 116.21 L 212.50 114.27 L 212.50 113.30 L 212.50 111.36 L 211.53 110.39 L 211.53 109.42 L 210.55 107.48 L 210.55 106.51 L 210.55 106.51 L 210.55 105.54 L 210.55 107.48 L 210.55 107.48 L 210.55 109.42 L 210.55 111.36 L 210.55 114.27 L 211.53 116.21 L 212.50 119.12 L 213.48 121.06 L 214.45 123.97 L 215.43 125.91 L 216.40 128.82 L 218.35 131.73 L 220.30 135.61 L 222.25 137.55 L 224.20 140.46 L 225.18 142.40 L 226.15 144.34 L 228.10 147.25 L 231.03 150.16 L 232.98 152.10 L 233.96 154.04 L 234.93 155.98 L 237.86 158.89 L 239.81 160.83 L 241.76 163.74 L 243.71 164.71 L 245.66 166.65 L 246.63 167.62 L 248.58 170.53 L 249.56 172.47 L 250.53 174.41 L 251.51 176.35 L 251.51 177.32 L 251.51 179.26 L 251.51 181.20 L 251.51 184.11 L 251.51 187.02 L 251.51 189.93 L 250.53 191.87 L 250.53 194.78 L 250.53 196.72 L 250.53 197.69 L 250.53 200.60 L 250.53 203.51 L 250.53 204.48 L 250.53 206.42 L 250.53 208.36 L 251.51 210.30 L 251.51 211.27 L 252.48 213.21 L 253.46 215.15 L 254.43 217.09 L 255.41 218.06 L 256.38 218.06 L 256.38 218.06 L 256.38 218.06" stroke="#000000" stroke-width="3" fill="none" stroke-linecap="round" stroke-linejoin="round"/>
<path d="M 268.09 150.16 L 267.11 150.16 L 266.14 149.19 L 265.16 148.22 L 265.16 148.22 L 264.19 148.22 L 263.21 147.25 L 262.24 146.28 L 261.26 145.31 L 259.31 144.34 L 258.33 142.40 L 256.38 141.43 L 255.41 139.49 L 254.43 138.52 L 253.46 136.58 L 252.48 134.64 L 251.51 133.67 L 250.53 131.73 L 250.53 130.76 L 249.56 127.85 L 249.56 126.88 L 248.58 124.94 L 248.58 123.00 L 248.58 122.03 L 248.58 121.06 L 248.58 122.03 L 248.58 123.00 L 248.58 123.97 L 248.58 124.94 L 248.58 125.91 L 248.58 127.85 L 247.61 128.82 L 247.61 129.79 L 247.61 131.73 L 247.61 132.70 L 247.61 134.64 L 247.61 135.61 L 247.61 136.58 L 247.61 138.52 L 247.61 139.49 L 247.61 141.43 L 247.61 143.37 L 247.61 145.31 L 247.61 147.25 L 247.61 149.19 L 247.61 150.16 L 247.61 151.13 L 247.61 152.10 L 247.61 154.04 L 248.58 155.98 L 249.56 156.95 L 250.53 157.92 L 252.48 159.86 L 254.43 160.83 L 257.36 162.77 L 260.29 164.71 L 263.21 166.65 L 267.11 169.56 L 268.09 170.53 L 270.04 171.50 L 271.99 172.47 L 272.96 173.44 L 274.91 174.41 L 275.89 174.41 L 277.84 175.38 L 278.81 176.35 L 279.79 176.35 L 280.76 176.35 L 281.74 177.32 L 282.71 177.32 L 282.71 177.32 L 282.71 177.32 L 282.71 176.35 L 281.74 176.35 L 280.76 175.38 L 279.79 175.38 L 279.79 174.41 L 277.84 174.41 L 277.84 173.44 L 276.86 172.47 L 275.89 172.47 L 274.91 172.47 L 272.96 171.50 L 272.96 171.50 L 271.99 171.50 L 270.04 170.53 L 269.06 169.56 L 268.09 169.56 L 268.09 169.56 L 267.11 169.56 L 266.14 169.56 L 265.16 169.56 L 265.16 170.53 L 264.19 170.53 L 263.21 171.50 L 263.21 172.47 L 263.21 174.41 L 262.24 175.38 L 261.26 176.35 L 261.26 177.32 L 260.29 177.32 L 260.29 179.26 L 260.29 179.26 L 260.29 180.23 L 260.29 181.20 L 260.29 181.20 L 260.29 182.17 L 261.26 182.17 L 262.24 183.14 L 263.21 184.11 L 264.19 185.08 L 265.16 186.05 L 266.14 187.02 L 268.09 187.99 L 269.06 188.96 L 270.04 189.93 L 271.01 190.90 L 271.99 191.87 L 273.94 192.84 L 274.91 193.81 L 276.86 194.78 L 277.84 196.72 L 279.79 197.69 L 282.71 199.63 L 284.67 201.57 L 287.59 203.51 L 290.52 204.48 L 293.44 207.39 L 296.37 208.36 L 299.29 210.30 L 304.17 213.21 L 306.12 214.18 L 310.02 216.12 L 312.95 217.09 L 316.85 219.03 L 319.77 220.00 L 321.72 221.94 L 323.67 221.94 L 324.65 222.91 L 326.60 222.91 L 326.60 223.88 L 327.57 223.88 L 327.57 223.88 L 325.62 220.00 L 324.65 218.06 L 322.70 217.09 L 320.75 214.18 L 319.77 212.24 L 317.82 210.30 L 316.85 209.33 L 315.87 208.36 L 315.87 207.39 L 314.90 206.42 L 313.92 205.45 L 312.95 204.48 L 311.00 202.54 L 309.04 199.63 L 308.07 197.69 L 306.12 195.75 L 306.12 193.81 L 305.14 191.87 L 304.17 190.90 L 303.19 188.96 L 302.22 188.96 L 302.22 187.02 L 301.24 187.02 L 300.27 187.02" stroke="#000000" stroke-width="3" fill="none" stroke-linecap="round" stroke-linejoin="round"/>
<path d="M 338.30 220.00 L 338.30 220.00 L 337.33 218.06 L 336.35 218.06 L 336.35 216.12 L 335.38 215.15 L 334.40 214.18 L 333.42 213.21 L 331.47 210.30 L 328.55 206.42 L 327.57 204.48 L 325.62 200.60 L 323.67 197.69 L 321.72 194.78 L 320.75 192.84 L 319.77 190.90 L 319.77 189.93 L 319.77 189.93 L 318.80 188.96 L 317.82 187.02 L 316.85 186.05 L 315.87 184.11 L 313.92 182.17 L 313.92 181.20 L 312.95 180.23 L 311.97 179.26 L 311.00 178.29 L 310.02 177.32 L 309.04 175.38 L 308.07 173.44 L 307.09 172.47 L 306.12 171.50 L 306.12 171.50 L 306.12 170.53 L 305.14 169.56 L 304.17 168.59 L 303.19 167.62 L 302.22 166.65 L 302.22 165.68 L 302.22 164.71 L 301.24 163.74 L 301.24 163.74 L 301.24 161.80 L 300.27 161.80" stroke="#000000" stroke-width="3" fill="none" stroke-linecap="round" stroke-linejoin="round"/>
<path d="M 285.64 157.92 L 287.59 157.92 L 288.57 157.92 L 289.54 158.89 L 290.52 158.89 L 292.47 158.89 L 293.44 158.89 L 294.42 159.86 L 297.34 159.86 L 302.22 160.83 L 304.17 160.83 L 305.14 161.80 L 307.09 161.80 L 308.07 162.77 L 310.02 163.74 L 311.00 164.71 L 312.95 165.68 L 314.90 166.65 L 315.87 168.59 L 317.82 169.56 L 319.77 171.50 L 322.70 173.44 L 325.62 176.35 L 328.55 178.29 L 331.47 182.17 L 335.38 185.08 L 338.30 187.99 L 341.23 189.93 L 344.15 192.84 L 348.05 196.72 L 349.03 197.69 L 353.90 202.54 L 357.80 205.45 L 360.73 208.36 L 363.66 210.30 L 366.58 213.21 L 369.51 216.12 L 372.43 218.06 L 374.38 220.00 L 377.31 221.94 L 379.26 222.91 L 380.23 223.88 L 382.18 225.82 L 383.16 227.76 L 383.16 227.76 L 384.13 228.73 L 385.11 228.73 L 385.11 229.70 L 385.11 229.70 L 385.11 228.73 L 384.13 228.73 L 383.16 227.76 L 382.18 225.82 L 380.23 224.85 L 379.26 222.91 L 376.33 220.97 L 374.38 220.00 L 373.41 218.06 L 372.43 217.09 L 371.46 215.15 L 368.53 211.27 L 367.56 209.33 L 366.58 206.42 L 363.66 202.54 L 361.71 199.63 L 360.73 197.69 L 358.78 194.78 L 354.88 190.90 L 352.93 186.05 L 350.00 183.14 L 348.05 180.23 L 345.13 177.32 L 342.20 173.44 L 337.33 167.62 L 335.38 163.74 L 333.42 159.86 L 331.47 155.98 L 330.50 152.10 L 329.52 148.22 L 329.52 145.31 L 328.55 141.43 L 328.55 137.55 L 330.50 133.67 L 331.47 128.82 L 333.42 125.91 L 334.40 123.97 L 335.38 123.00 L 335.38 123.00" stroke="#000000" stroke-width="3" fill="none" stroke-linecap="round" stroke-linejoin="round"/>
<path d="M 394.86 100.69 L 394.86 100.69 L 392.91 100.69 L 392.91 101.66 L 390.96 102.63 L 389.99 102.63 L 389.99 102.63 L 389.01 103.60 L 386.08 104.57 L 384.13 105.54 L 382.18 107.48 L 379.26 109.42 L 378.28 110.39 L 376.33 112.33 L 374.38 113.30 L 373.41 116.21 L 371.46 117.18 L 371.46 118.15 L 370.48 119.12 L 369.51 120.09 L 369.51 121.06 L 369.51 121.06 L 369.51 122.03 L 369.51 123.00 L 369.51 123.00 L 370.48 123.97 L 370.48 124.94 L 371.46 124.94 L 372.43 125.91 L 373.41 127.85 L 374.38 127.85 L 375.36 128.82 L 377.31 130.76 L 379.26 133.67 L 381.21 134.64 L 382.18 137.55 L 383.16 139.49 L 385.11 142.40 L 387.06 145.31 L 388.04 147.25 L 389.01 152.10 L 389.01 155.01 L 389.99 159.86 L 389.01 164.71 L 388.04 170.53 L 385.11 173.44 L 382.18 179.26 L 379.26 181.20 L 378.28 184.11 L 377.31 185.08 L 376.33 187.02 L 375.36 188.96 L 374.38 188.96 L 374.38 189.93" stroke="#000000" stroke-width="3" fill="none" stroke-linecap="round" stroke-linejoin="round"/>
<path d="M 369.51 197.69 L 369.51 197.69 L 370.48 197.69 L 370.48 197.69 L 370.48 197.69 L 370.48 196.72 L 369.51 196.72 L 369.51 196.72 L 368.53 196.72 L 368.53 196.72" stroke="#000000" stroke-width="3" fill="none" stroke-linecap="round" stroke-linejoin="round"/>
<path d="M 257.36 82.25 L 257.36 83.22 L 257.36 83.22 L 258.33 84.19 L 258.33 85.16 L 259.31 85.16 L 259.31 85.16 L 260.29 86.13 L 261.26 87.10 L 261.26 87.10 L 262.24 88.07 L 263.21 88.07 L 264.19 88.07 L 265.16 89.04 L 265.16 89.04 L 266.14 90.01 L 267.11 90.01 L 268.09 90.01 L 269.06 90.98 L 270.04 90.98 L 270.04 90.98 L 271.01 91.95 L 271.01 91.95 L 271.99 91.95 L 272.96 92.92 L 272.96 92.92 L 273.94 92.92 L 274.91 93.90 L 274.91 93.90 L 275.89 93.90 L 275.89 94.87 L 276.86 94.87 L 277.84 94.87 L 277.84 94.87 L 278.81 94.87 L 278.81 94.87 L 279.79 94.87 L 280.76 94.87 L 280.76 94.87 L 282.71 94.87 L 282.71 94.87 L 283.69 94.87 L 283.69 94.87 L 284.67 94.87 L 284.67 94.87 L 285.64 94.87 L 286.62 94.87 L 286.62 94.87 L 287.59 94.87 L 287.59 94.87" stroke="#000000" stroke-width="3" fill="none" stroke-linecap="round" stroke-linejoin="round"/>
<path d="M 260.29 102.63 L 260.29 101.66 L 260.29 101.66 L 261.26 100.69 L 262.24 100.69 L 263.21 98.75 L 264.19 98.75 L 265.16 97.78 L 266.14 96.81 L 266.14 95.84 L 268.09 93.90 L 268.09 92.92 L 269.06 91.95 L 270.04 90.98 L 271.01 90.98 L 271.01 90.01 L 271.99 89.04 L 272.96 89.04 L 272.96 88.07 L 273.94 87.10 L 273.94 86.13 L 274.91 86.13 L 274.91 85.16 L 274.91 84.19 L 274.91 83.22 L 275.89 82.25 L 275.89 81.28 L 275.89 80.31 L 275.89 80.31 L 275.89 79.34 L 275.89 79.34 L 275.89 78.37 L 275.89 78.37 L 275.89 77.40 L 275.89 77.40 L 275.89 76.43 L 275.89 77.40 L 275.89 77.40 L 275.89 78.37 L 274.91 78.37 L 274.91 79.34 L 274.91 80.31 L 274.91 81.28 L 273.94 81.28 L 273.94 82.25 L 273.94 83.22 L 273.94 84.19 L 272.96 85.16 L 272.96 86.13 L 272.96 86.13 L 272.96 87.10 L 271.99 88.07 L 271.99 89.04 L 271.99 90.01 L 271.01 90.01 L 271.01 90.98 L 271.01 90.98 L 271.01 91.95 L 271.01 91.95 L 271.01 92.92 L 271.01 93.90 L 271.01 93.90 L 271.01 94.87 L 271.01 94.87 L 271.01 95.84 L 271.01 95.84 L 271.99 96.81 L 271.99 96.81 L 271.99 97.78 L 272.96 98.75 L 272.96 98.75 L 272.96 99.72 L 272.96 99.72 L 273.94 100.69 L 273.94 101.66 L 274.91 102.63 L 274.91 103.60 L 274.91 103.60 L 275.89 104.57 L 275.89 105.54 L 275.89 105.54 L 276.86 106.51 L 276.86 106.51 L 276.86 107.48 L 276.86 107.48 L 277.84 107.48 L 277.84 108.45 L 277.84 108.45 L 277.84 108.45" stroke="#000000" stroke-width="3" fill="none" stroke-linecap="round" stroke-linejoin="round"/>
</svg>